<?xml version="1.0" encoding="UTF-8" standalone="no"?>
<!DOCTYPE svg PUBLIC "-//W3C//DTD SVG 1.1//EN"
 "http://www.w3.org/Graphics/SVG/1.1/DTD/svg11.dtd">
<!-- Generated by graphviz version 2.47.3 (20210619.1520)
 -->
<!-- Title: G Pages: 1 -->
<svg width="650pt" height="835pt"
 viewBox="0.00 0.00 649.85 835.44" xmlns="http://www.w3.org/2000/svg" xmlns:xlink="http://www.w3.org/1999/xlink">
<g id="graph0" class="graph" transform="scale(1 1) rotate(0) translate(4 831.44)">
<title>G</title><style>.edge>path:hover{stroke-width:8}</style>
<polygon fill="white" stroke="transparent" points="-4,4 -4,-831.44 645.85,-831.44 645.85,4 -4,4"/>
<!-- pyslurm_decorators -->
<g id="node1" class="node">
<title>pyslurm_decorators</title><style>.edge>path:hover{stroke-width:8}</style>
<ellipse fill="#2381c8" stroke="black" cx="216" cy="-18" rx="62.32" ry="18"/>
<text text-anchor="middle" x="216" y="-15" font-family="Helvetica,sans-Serif" font-size="10.00" fill="#ffffff">pyslurm_decorators</text>
</g>
<!-- pyslurm_decorators_example -->
<g id="node2" class="node">
<title>pyslurm_decorators_example</title><style>.edge>path:hover{stroke-width:8}</style>
<ellipse fill="#467ca4" stroke="black" cx="243" cy="-543.33" rx="75.21" ry="22.76"/>
<text text-anchor="middle" x="243" y="-546.33" font-family="Helvetica,sans-Serif" font-size="10.00" fill="#ffffff">pyslurm_decorators.</text>
<text text-anchor="middle" x="243" y="-534.33" font-family="Helvetica,sans-Serif" font-size="10.00" fill="#ffffff">example</text>
</g>
<!-- pyslurm_decorators_lib -->
<g id="node3" class="node">
<title>pyslurm_decorators_lib</title><style>.edge>path:hover{stroke-width:8}</style>
<ellipse fill="#478dc2" stroke="black" cx="165" cy="-94.63" rx="75.21" ry="22.76"/>
<text text-anchor="middle" x="165" y="-97.63" font-family="Helvetica,sans-Serif" font-size="10.00" fill="#ffffff">pyslurm_decorators.</text>
<text text-anchor="middle" x="165" y="-85.63" font-family="Helvetica,sans-Serif" font-size="10.00" fill="#ffffff">lib</text>
</g>
<!-- pyslurm_decorators_lib&#45;&gt;pyslurm_decorators -->
<g id="edge11" class="edge">
<title>pyslurm_decorators_lib&#45;&gt;pyslurm_decorators</title><style>.edge>path:hover{stroke-width:8}</style>
<path fill="none" stroke="black" d="M179.75,-72.04C185.73,-63.3 192.66,-53.15 198.86,-44.08"/>
<polygon fill="#478dc2" stroke="black" points="201.77,-46.03 204.52,-35.8 195.99,-42.08 201.77,-46.03"/>
</g>
<!-- pyslurm_decorators_lib_clusters -->
<g id="node4" class="node">
<title>pyslurm_decorators_lib_clusters</title><style>.edge>path:hover{stroke-width:8}</style>
<ellipse fill="#246493" stroke="black" cx="319" cy="-282.59" rx="75.21" ry="31.23"/>
<text text-anchor="middle" x="319" y="-291.59" font-family="Helvetica,sans-Serif" font-size="10.00" fill="#ffffff">pyslurm_decorators.</text>
<text text-anchor="middle" x="319" y="-279.59" font-family="Helvetica,sans-Serif" font-size="10.00" fill="#ffffff">lib.</text>
<text text-anchor="middle" x="319" y="-267.59" font-family="Helvetica,sans-Serif" font-size="10.00" fill="#ffffff">clusters</text>
</g>
<!-- pyslurm_decorators_lib_clusters&#45;&gt;pyslurm_decorators -->
<g id="edge12" class="edge">
<title>pyslurm_decorators_lib_clusters&#45;&gt;pyslurm_decorators</title><style>.edge>path:hover{stroke-width:8}</style>
<path fill="none" stroke="black" d="M302.42,-252.08C296.76,-240.91 290.89,-227.89 287,-215.48 270.86,-164.02 296.58,-141.36 268,-95.63"/>
<path fill="none" stroke="black" d="M268,-93.63C256.85,-77.01 244,-58.56 233.87,-44.17"/>
<polygon fill="#246493" stroke="black" points="236.57,-41.93 227.94,-35.78 230.85,-45.96 236.57,-41.93"/>
</g>
<!-- pyslurm_decorators_lib_decorators -->
<g id="node5" class="node">
<title>pyslurm_decorators_lib_decorators</title><style>.edge>path:hover{stroke-width:8}</style>
<ellipse fill="#336d99" stroke="black" cx="371" cy="-184.37" rx="75.21" ry="31.23"/>
<text text-anchor="middle" x="371" y="-193.37" font-family="Helvetica,sans-Serif" font-size="10.00" fill="#ffffff">pyslurm_decorators.</text>
<text text-anchor="middle" x="371" y="-181.37" font-family="Helvetica,sans-Serif" font-size="10.00" fill="#ffffff">lib.</text>
<text text-anchor="middle" x="371" y="-169.37" font-family="Helvetica,sans-Serif" font-size="10.00" fill="#ffffff">decorators</text>
</g>
<!-- pyslurm_decorators_lib_clusters&#45;&gt;pyslurm_decorators_lib_decorators -->
<g id="edge13" class="edge">
<title>pyslurm_decorators_lib_clusters&#45;&gt;pyslurm_decorators_lib_decorators</title><style>.edge>path:hover{stroke-width:8}</style>
<path fill="none" stroke="black" d="M335.03,-251.94C339.77,-243.16 345.04,-233.41 350.05,-224.14"/>
<polygon fill="#246493" stroke="black" points="353.26,-225.55 354.94,-215.09 347.1,-222.22 353.26,-225.55"/>
</g>
<!-- pyslurm_decorators_lib_decorators&#45;&gt;pyslurm_decorators -->
<g id="edge14" class="edge">
<title>pyslurm_decorators_lib_decorators&#45;&gt;pyslurm_decorators</title><style>.edge>path:hover{stroke-width:8}</style>
<path fill="none" stroke="black" d="M330.69,-158.07C309.08,-142.55 283.75,-120.83 268,-95.63"/>
</g>
<!-- pyslurm_decorators_map_example -->
<g id="node6" class="node">
<title>pyslurm_decorators_map_example</title><style>.edge>path:hover{stroke-width:8}</style>
<ellipse fill="#4981ac" stroke="black" cx="525" cy="-372.33" rx="75.21" ry="22.76"/>
<text text-anchor="middle" x="525" y="-375.33" font-family="Helvetica,sans-Serif" font-size="10.00" fill="#ffffff">pyslurm_decorators.</text>
<text text-anchor="middle" x="525" y="-363.33" font-family="Helvetica,sans-Serif" font-size="10.00" fill="#ffffff">map_example</text>
</g>
<!-- pyslurm_decorators_progressbar_test -->
<g id="node7" class="node">
<title>pyslurm_decorators_progressbar_test</title><style>.edge>path:hover{stroke-width:8}</style>
<ellipse fill="#3d6c8f" stroke="black" cx="214" cy="-372.33" rx="75.21" ry="22.76"/>
<text text-anchor="middle" x="214" y="-375.33" font-family="Helvetica,sans-Serif" font-size="10.00" fill="#ffffff">pyslurm_decorators.</text>
<text text-anchor="middle" x="214" y="-363.33" font-family="Helvetica,sans-Serif" font-size="10.00" fill="#ffffff">progressbar_test</text>
</g>
<!-- pyslurm_decorators_schemas -->
<g id="node8" class="node">
<title>pyslurm_decorators_schemas</title><style>.edge>path:hover{stroke-width:8}</style>
<ellipse fill="#2f91db" stroke="black" cx="355" cy="-453.59" rx="75.21" ry="22.76"/>
<text text-anchor="middle" x="355" y="-456.59" font-family="Helvetica,sans-Serif" font-size="10.00" fill="#ffffff">pyslurm_decorators.</text>
<text text-anchor="middle" x="355" y="-444.59" font-family="Helvetica,sans-Serif" font-size="10.00" fill="#ffffff">schemas</text>
</g>
<!-- pyslurm_decorators_schemas&#45;&gt;pyslurm_decorators_lib_clusters -->
<g id="edge15" class="edge">
<title>pyslurm_decorators_schemas&#45;&gt;pyslurm_decorators_lib_clusters</title><style>.edge>path:hover{stroke-width:8}</style>
<path fill="none" stroke="black" d="M366.25,-431.09C373.53,-415.54 382.02,-393.75 384,-373.33"/>
<path fill="none" stroke="black" d="M384,-371.33C385.95,-351.25 375.04,-332.7 361.63,-317.88"/>
<polygon fill="#2f91db" stroke="black" points="363.92,-315.21 354.44,-310.48 358.9,-320.09 363.92,-315.21"/>
</g>
<!-- pyslurm_decorators_schemas&#45;&gt;pyslurm_decorators_lib_decorators -->
<g id="edge16" class="edge">
<title>pyslurm_decorators_schemas&#45;&gt;pyslurm_decorators_lib_decorators</title><style>.edge>path:hover{stroke-width:8}</style>
<path fill="none" stroke="black" d="M384,-371.33C388.1,-329.04 443.06,-320.51 422,-283.59"/>
<path fill="none" stroke="black" d="M422,-281.59C411.31,-262.85 400.02,-241.7 390.78,-224.01"/>
<polygon fill="#2f91db" stroke="black" points="393.87,-222.37 386.16,-215.11 387.66,-225.59 393.87,-222.37"/>
</g>
<!-- pyslurm_decorators_schemas&#45;&gt;pyslurm_decorators_progressbar_test -->
<g id="edge17" class="edge">
<title>pyslurm_decorators_schemas&#45;&gt;pyslurm_decorators_progressbar_test</title><style>.edge>path:hover{stroke-width:8}</style>
<path fill="none" stroke="black" d="M320.87,-433.4C301.7,-422.63 277.59,-409.08 257.12,-397.57"/>
<polygon fill="#2f91db" stroke="black" points="258.74,-394.47 248.31,-392.62 255.31,-400.57 258.74,-394.47"/>
</g>
<!-- pyslurm_decorators_schemas_slurm -->
<g id="node9" class="node">
<title>pyslurm_decorators_schemas_slurm</title><style>.edge>path:hover{stroke-width:8}</style>
<ellipse fill="#2381c8" stroke="black" cx="453" cy="-543.33" rx="75.21" ry="31.23"/>
<text text-anchor="middle" x="453" y="-552.33" font-family="Helvetica,sans-Serif" font-size="10.00" fill="#ffffff">pyslurm_decorators.</text>
<text text-anchor="middle" x="453" y="-540.33" font-family="Helvetica,sans-Serif" font-size="10.00" fill="#ffffff">schemas.</text>
<text text-anchor="middle" x="453" y="-528.33" font-family="Helvetica,sans-Serif" font-size="10.00" fill="#ffffff">slurm</text>
</g>
<!-- pyslurm_decorators_schemas_slurm&#45;&gt;pyslurm_decorators_lib_clusters -->
<g id="edge18" class="edge">
<title>pyslurm_decorators_schemas_slurm&#45;&gt;pyslurm_decorators_lib_clusters</title><style>.edge>path:hover{stroke-width:8}</style>
<path fill="none" stroke="black" d="M395.07,-523.17C383.48,-519.45 371.37,-515.64 360,-512.22 303.01,-495.04 280.51,-509.25 231,-476.22 220.83,-469.43 223.49,-462.3 214,-454.59"/>
<path fill="none" stroke="black" d="M214,-452.59C202.86,-443.53 201.54,-439.5 190,-430.96 165,-412.47 153.88,-414.88 130,-394.96 120.17,-386.77 107.46,-385.63 111,-373.33"/>
</g>
<!-- pyslurm_decorators_schemas_slurm&#45;&gt;pyslurm_decorators_lib_decorators -->
<g id="edge19" class="edge">
<title>pyslurm_decorators_schemas_slurm&#45;&gt;pyslurm_decorators_lib_decorators</title><style>.edge>path:hover{stroke-width:8}</style>
<path fill="none" stroke="black" d="M450.69,-511.98C445.64,-447.91 433.12,-303.09 422,-283.59"/>
</g>
<!-- pyslurm_decorators_schemas_slurm&#45;&gt;pyslurm_decorators_progressbar_test -->
<g id="edge20" class="edge">
<title>pyslurm_decorators_schemas_slurm&#45;&gt;pyslurm_decorators_progressbar_test</title><style>.edge>path:hover{stroke-width:8}</style>
<path fill="none" stroke="black" d="M214,-452.59C200.47,-441.59 200.33,-422.07 203.65,-405.15"/>
<polygon fill="#2381c8" stroke="black" points="207.14,-405.59 206.07,-395.05 200.33,-403.96 207.14,-405.59"/>
</g>
<!-- dask -->
<g id="node10" class="node">
<title>dask</title><style>.edge>path:hover{stroke-width:8}</style>
<polygon fill="#f90606" stroke="black" points="399,-683.44 396,-687.44 375,-687.44 372,-683.44 345,-683.44 345,-647.44 399,-647.44 399,-683.44"/>
<text text-anchor="middle" x="372" y="-662.44" font-family="Helvetica,sans-Serif" font-size="10.00" fill="#ffffff">dask</text>
</g>
<!-- dask&#45;&gt;pyslurm_decorators_example -->
<g id="edge3" class="edge">
<title>dask&#45;&gt;pyslurm_decorators_example</title><style>.edge>path:hover{stroke-width:8}</style>
<path fill="none" stroke="black" d="M346,-610.44C330.45,-593.34 309.52,-578.83 290.59,-567.81"/>
<polygon fill="#f90606" stroke="black" points="292.21,-564.7 281.78,-562.83 288.77,-570.79 292.21,-564.7"/>
</g>
<!-- dask&#45;&gt;pyslurm_decorators_lib_clusters -->
<g id="edge4" class="edge">
<title>dask&#45;&gt;pyslurm_decorators_lib_clusters</title><style>.edge>path:hover{stroke-width:8}</style>
<path fill="none" stroke="black" d="M346,-610.44C316.09,-577.54 357.07,-544.97 327,-512.22 278.41,-459.31 218.02,-512.85 176,-454.59"/>
<path fill="none" stroke="black" d="M176,-452.59C150.03,-415.16 98.41,-417.11 111,-373.33"/>
</g>
<!-- dask&#45;&gt;pyslurm_decorators_progressbar_test -->
<g id="edge5" class="edge">
<title>dask&#45;&gt;pyslurm_decorators_progressbar_test</title><style>.edge>path:hover{stroke-width:8}</style>
<path fill="none" stroke="black" d="M176,-452.59C164.83,-437.1 173.67,-417.8 185.62,-402.13"/>
<polygon fill="#f90606" stroke="black" points="188.41,-404.25 192.06,-394.31 183,-399.8 188.41,-404.25"/>
</g>
<!-- daskjobqueue -->
<g id="node11" class="node">
<title>daskjobqueue</title><style>.edge>path:hover{stroke-width:8}</style>
<polygon fill="#b8a63d" stroke="black" points="150.25,-561.33 147.25,-565.33 126.25,-565.33 123.25,-561.33 71.75,-561.33 71.75,-525.33 150.25,-525.33 150.25,-561.33"/>
<text text-anchor="middle" x="111" y="-540.33" font-family="Helvetica,sans-Serif" font-size="10.00" fill="#000000">daskjobqueue</text>
</g>
<!-- dask&#45;&gt;daskjobqueue -->
<g id="edge1" class="edge">
<title>dask&#45;&gt;daskjobqueue</title><style>.edge>path:hover{stroke-width:8}</style>
<path fill="none" stroke="black" d="M366.4,-647.22C362.13,-636.07 355.38,-621.76 346,-611.44"/>
<path fill="none" stroke="black" d="M346,-610.44C289.07,-547.81 237.75,-605.46 159,-574.44 153.74,-572.37 148.42,-569.71 143.33,-566.83"/>
<polygon fill="#f90606" stroke="black" points="144.86,-563.66 134.49,-561.48 141.24,-569.65 144.86,-563.66"/>
</g>
<!-- distributed -->
<g id="node12" class="node">
<title>distributed</title><style>.edge>path:hover{stroke-width:8}</style>
<polygon fill="#52c823" stroke="black" points="518.12,-827.44 515.12,-831.44 494.12,-831.44 491.12,-827.44 455.88,-827.44 455.88,-791.44 518.12,-791.44 518.12,-827.44"/>
<text text-anchor="middle" x="487" y="-806.44" font-family="Helvetica,sans-Serif" font-size="10.00" fill="#000000">distributed</text>
</g>
<!-- daskjobqueue&#45;&gt;pyslurm_decorators_lib_clusters -->
<g id="edge6" class="edge">
<title>daskjobqueue&#45;&gt;pyslurm_decorators_lib_clusters</title><style>.edge>path:hover{stroke-width:8}</style>
<path fill="none" stroke="black" d="M108.83,-525.27C107.07,-507.41 105.64,-478.68 111,-454.59"/>
</g>
<!-- distributed&#45;&gt;pyslurm_decorators_lib_decorators -->
<g id="edge8" class="edge">
<title>distributed&#45;&gt;pyslurm_decorators_lib_decorators</title><style>.edge>path:hover{stroke-width:8}</style>
<path fill="none" stroke="black" d="M628,-610.44C578.97,-517.16 675.27,-467.52 628,-373.33"/>
</g>
<!-- distributed&#45;&gt;pyslurm_decorators_schemas_slurm -->
<g id="edge9" class="edge">
<title>distributed&#45;&gt;pyslurm_decorators_schemas_slurm</title><style>.edge>path:hover{stroke-width:8}</style>
<path fill="none" stroke="black" d="M515.71,-791.25C566.48,-758.5 663.59,-683.93 628,-611.44"/>
<path fill="none" stroke="black" d="M628,-610.44C626.59,-607.76 567.49,-585.79 518.36,-567.9"/>
<polygon fill="#52c823" stroke="black" points="519.28,-564.51 508.69,-564.38 516.89,-571.09 519.28,-564.51"/>
</g>
<!-- distributed&#45;&gt;dask -->
<g id="edge7" class="edge">
<title>distributed&#45;&gt;dask</title><style>.edge>path:hover{stroke-width:8}</style>
<path fill="none" stroke="black" d="M450.34,-785.52C438.71,-777.06 426.43,-766.74 417,-755.44 401.39,-736.74 389.35,-711.7 381.66,-692.95"/>
<polygon fill="#52c823" stroke="black" points="448.45,-788.47 458.65,-791.35 452.47,-782.74 448.45,-788.47"/>
<polygon fill="#52c823" stroke="black" points="384.87,-691.54 377.95,-683.52 378.36,-694.11 384.87,-691.54"/>
</g>
<!-- pydantic -->
<g id="node13" class="node">
<title>pydantic</title><style>.edge>path:hover{stroke-width:8}</style>
<polygon fill="#53b68c" stroke="black" points="480,-755.44 477,-759.44 456,-759.44 453,-755.44 426,-755.44 426,-719.44 480,-719.44 480,-755.44"/>
<text text-anchor="middle" x="453" y="-734.44" font-family="Helvetica,sans-Serif" font-size="10.00" fill="#000000">pydantic</text>
</g>
<!-- pydantic&#45;&gt;pyslurm_decorators_schemas_slurm -->
<g id="edge10" class="edge">
<title>pydantic&#45;&gt;pyslurm_decorators_schemas_slurm</title><style>.edge>path:hover{stroke-width:8}</style>
<path fill="none" stroke="black" d="M453,-719.39C453,-689.42 453,-626.54 453,-584.87"/>
<polygon fill="#53b68c" stroke="black" points="456.5,-584.77 453,-574.77 449.5,-584.77 456.5,-584.77"/>
</g>
<!-- rich -->
<g id="node14" class="node">
<title>rich</title><style>.edge>path:hover{stroke-width:8}</style>
<polygon fill="#5926d9" stroke="black" points="600,-561.33 597,-565.33 576,-565.33 573,-561.33 546,-561.33 546,-525.33 600,-525.33 600,-561.33"/>
<text text-anchor="middle" x="573" y="-540.33" font-family="Helvetica,sans-Serif" font-size="10.00" fill="#ffffff">rich</text>
</g>
<!-- rich&#45;&gt;pyslurm_decorators_lib_decorators -->
<g id="edge21" class="edge">
<title>rich&#45;&gt;pyslurm_decorators_lib_decorators</title><style>.edge>path:hover{stroke-width:8}</style>
<path fill="none" stroke="black" d="M590,-452.59C590.44,-413.53 645.52,-408.25 628,-373.33"/>
<path fill="none" stroke="black" d="M628,-371.33C583.36,-282.39 472.99,-369.05 422,-283.59"/>
</g>
<!-- rich&#45;&gt;pyslurm_decorators_map_example -->
<g id="edge22" class="edge">
<title>rich&#45;&gt;pyslurm_decorators_map_example</title><style>.edge>path:hover{stroke-width:8}</style>
<path fill="none" stroke="black" d="M578.26,-525.04C583.15,-507.48 589.72,-479.41 590,-454.59"/>
<path fill="none" stroke="black" d="M590,-452.59C590.23,-431.98 576.95,-413.8 562.34,-400.06"/>
<polygon fill="#5926d9" stroke="black" points="564.46,-397.27 554.64,-393.3 559.84,-402.53 564.46,-397.27"/>
</g>
<!-- rich&#45;&gt;pyslurm_decorators_progressbar_test -->
<g id="edge23" class="edge">
<title>rich&#45;&gt;pyslurm_decorators_progressbar_test</title><style>.edge>path:hover{stroke-width:8}</style>
<path fill="none" stroke="black" d="M556.42,-525.13C550.72,-520.19 544.01,-515.31 537,-512.22 427.85,-464.05 369.48,-543.55 271,-476.22 246.37,-459.37 231.28,-428.24 222.87,-404.61"/>
<polygon fill="#5926d9" stroke="black" points="226.16,-403.39 219.67,-395.01 219.52,-405.61 226.16,-403.39"/>
</g>
<!-- traitlets -->
<g id="node15" class="node">
<title>traitlets</title><style>.edge>path:hover{stroke-width:8}</style>
<polygon fill="#b83da6" stroke="black" points="54,-561.33 51,-565.33 30,-565.33 27,-561.33 0,-561.33 0,-525.33 54,-525.33 54,-561.33"/>
<text text-anchor="middle" x="27" y="-540.33" font-family="Helvetica,sans-Serif" font-size="10.00" fill="#ffffff">traitlets</text>
</g>
<!-- traitlets&#45;&gt;pyslurm_decorators_lib_clusters -->
<g id="edge24" class="edge">
<title>traitlets&#45;&gt;pyslurm_decorators_lib_clusters</title><style>.edge>path:hover{stroke-width:8}</style>
<path fill="none" stroke="black" d="M47.75,-525.2C71.34,-505.04 107.11,-472.09 111,-454.59"/>
<path fill="none" stroke="black" d="M111,-452.59C118.65,-418.2 101.26,-407.19 111,-373.33"/>
<path fill="none" stroke="black" d="M111,-371.33C125.75,-320.04 183.66,-298.49 234.64,-289.55"/>
<polygon fill="#b83da6" stroke="black" points="235.41,-292.98 244.73,-287.93 234.3,-286.06 235.41,-292.98"/>
</g>
</g>
</svg>
