<?xml version="1.0" encoding="UTF-8" standalone="no"?>
<!DOCTYPE svg PUBLIC "-//W3C//DTD SVG 1.1//EN"
 "http://www.w3.org/Graphics/SVG/1.1/DTD/svg11.dtd">
<!-- Generated by graphviz version 2.47.3 (20210619.1520)
 -->
<!-- Title: G Pages: 1 -->
<svg width="582pt" height="1569pt"
 viewBox="0.00 0.00 582.35 1569.20" xmlns="http://www.w3.org/2000/svg" xmlns:xlink="http://www.w3.org/1999/xlink">
<g id="graph0" class="graph" transform="scale(1 1) rotate(0) translate(4 1565.2)">
<title>G</title><style>.edge>path:hover{stroke-width:8}</style>
<polygon fill="white" stroke="transparent" points="-4,4 -4,-1565.2 578.35,-1565.2 578.35,4 -4,4"/>
<!-- dask -->
<g id="node1" class="node">
<title>dask</title><style>.edge>path:hover{stroke-width:8}</style>
<ellipse fill="#f90606" stroke="black" cx="257" cy="-1543.2" rx="27" ry="18"/>
<text text-anchor="middle" x="257" y="-1540.2" font-family="Helvetica,sans-Serif" font-size="10.00" fill="#ffffff">dask</text>
</g>
<!-- dask_jobqueue_core -->
<g id="node3" class="node">
<title>dask_jobqueue_core</title><style>.edge>path:hover{stroke-width:8}</style>
<ellipse fill="#849b26" stroke="black" cx="245" cy="-860.32" rx="61.45" ry="22.76"/>
<text text-anchor="middle" x="245" y="-863.32" font-family="Helvetica,sans-Serif" font-size="10.00" fill="#000000">dask_jobqueue.</text>
<text text-anchor="middle" x="245" y="-851.32" font-family="Helvetica,sans-Serif" font-size="10.00" fill="#000000">core</text>
</g>
<!-- dask&#45;&gt;dask_jobqueue_core -->
<g id="edge1" class="edge">
<title>dask&#45;&gt;dask_jobqueue_core</title><style>.edge>path:hover{stroke-width:8}</style>
<path fill="none" stroke="black" d="M342,-1266.06C330.41,-1211.84 342,-1196.76 342,-1141.32 342,-1141.32 342,-1141.32 342,-1049.58 342,-991.97 361.4,-974.2 342,-919.95"/>
<path fill="none" stroke="black" d="M342,-918.95C334.31,-901.12 318.02,-888.46 300.96,-879.63"/>
<polygon fill="#f90606" stroke="black" points="301.98,-876.24 291.45,-875.12 298.98,-882.57 301.98,-876.24"/>
</g>
<!-- dask_jobqueue_slurm -->
<g id="node4" class="node">
<title>dask_jobqueue_slurm</title><style>.edge>path:hover{stroke-width:8}</style>
<ellipse fill="#a7c431" stroke="black" cx="253" cy="-779.07" rx="61.45" ry="22.76"/>
<text text-anchor="middle" x="253" y="-782.07" font-family="Helvetica,sans-Serif" font-size="10.00" fill="#000000">dask_jobqueue.</text>
<text text-anchor="middle" x="253" y="-770.07" font-family="Helvetica,sans-Serif" font-size="10.00" fill="#000000">slurm</text>
</g>
<!-- dask&#45;&gt;dask_jobqueue_slurm -->
<g id="edge2" class="edge">
<title>dask&#45;&gt;dask_jobqueue_slurm</title><style>.edge>path:hover{stroke-width:8}</style>
<path fill="none" stroke="black" d="M342,-918.95C331.85,-895.43 348.35,-886.14 342,-861.32"/>
<path fill="none" stroke="black" d="M342,-859.32C335.88,-835.4 316.12,-816.56 296.78,-803.26"/>
<polygon fill="#f90606" stroke="black" points="298.55,-800.24 288.26,-797.72 294.73,-806.11 298.55,-800.24"/>
</g>
<!-- distributed -->
<g id="node5" class="node">
<title>distributed</title><style>.edge>path:hover{stroke-width:8}</style>
<ellipse fill="#0ac253" stroke="black" cx="134" cy="-973.95" rx="37.21" ry="18"/>
<text text-anchor="middle" x="134" y="-970.95" font-family="Helvetica,sans-Serif" font-size="10.00" fill="#ffffff">distributed</text>
</g>
<!-- dask&#45;&gt;distributed -->
<g id="edge3" class="edge">
<title>dask&#45;&gt;distributed</title><style>.edge>path:hover{stroke-width:8}</style>
<path fill="none" stroke="black" d="M257.12,-1525.01C257.17,-1514.64 257.17,-1501.16 257,-1489.2"/>
<path fill="none" stroke="black" d="M257,-1488.2C256.59,-1458.98 224.06,-1471.34 202,-1452.2 192.34,-1443.81 191.14,-1440.44 183,-1430.57"/>
<path fill="none" stroke="black" d="M183,-1428.57C160.48,-1401.25 147.22,-1400.67 128,-1370.94 85.68,-1305.47 76.94,-1284.94 62,-1208.43 53.55,-1165.15 46.17,-1150.37 62,-1109.21 74.38,-1077.01 106.07,-1085.15 114,-1051.58"/>
<path fill="none" stroke="black" d="M114,-1049.58C117.33,-1033.68 121.99,-1016.12 125.97,-1002.03"/>
<polygon fill="#f90606" stroke="black" points="129.45,-1002.59 128.85,-992.01 122.72,-1000.65 129.45,-1002.59"/>
</g>
<!-- distributed_core -->
<g id="node6" class="node">
<title>distributed_core</title><style>.edge>path:hover{stroke-width:8}</style>
<ellipse fill="#17d362" stroke="black" cx="183" cy="-1348.31" rx="45.78" ry="22.76"/>
<text text-anchor="middle" x="183" y="-1351.31" font-family="Helvetica,sans-Serif" font-size="10.00" fill="#000000">distributed.</text>
<text text-anchor="middle" x="183" y="-1339.31" font-family="Helvetica,sans-Serif" font-size="10.00" fill="#000000">core</text>
</g>
<!-- dask&#45;&gt;distributed_core -->
<g id="edge4" class="edge">
<title>dask&#45;&gt;distributed_core</title><style>.edge>path:hover{stroke-width:8}</style>
<path fill="none" stroke="black" d="M183,-1428.57C172.3,-1415.59 171.82,-1396.94 174.24,-1380.99"/>
<polygon fill="#f90606" stroke="black" points="177.71,-1381.47 176.17,-1370.98 170.84,-1380.14 177.71,-1381.47"/>
</g>
<!-- distributed_deploy_spec -->
<g id="node8" class="node">
<title>distributed_deploy_spec</title><style>.edge>path:hover{stroke-width:8}</style>
<ellipse fill="#2bac5e" stroke="black" cx="228" cy="-1140.32" rx="45.78" ry="31.23"/>
<text text-anchor="middle" x="228" y="-1149.32" font-family="Helvetica,sans-Serif" font-size="10.00" fill="#ffffff">distributed.</text>
<text text-anchor="middle" x="228" y="-1137.32" font-family="Helvetica,sans-Serif" font-size="10.00" fill="#ffffff">deploy.</text>
<text text-anchor="middle" x="228" y="-1125.32" font-family="Helvetica,sans-Serif" font-size="10.00" fill="#ffffff">spec</text>
</g>
<!-- dask&#45;&gt;distributed_deploy_spec -->
<g id="edge5" class="edge">
<title>dask&#45;&gt;distributed_deploy_spec</title><style>.edge>path:hover{stroke-width:8}</style>
<path fill="none" stroke="black" d="M342,-1347.31C334.7,-1312.85 351.92,-1301.86 342,-1268.06"/>
<path fill="none" stroke="black" d="M342,-1266.06C341.56,-1264.58 292.31,-1210.99 258.69,-1174.55"/>
<polygon fill="#f90606" stroke="black" points="261.13,-1172.03 251.78,-1167.05 255.98,-1176.78 261.13,-1172.03"/>
</g>
<!-- distributed_scheduler -->
<g id="node9" class="node">
<title>distributed_scheduler</title><style>.edge>path:hover{stroke-width:8}</style>
<ellipse fill="#21bf60" stroke="black" cx="228" cy="-1267.06" rx="45.78" ry="22.76"/>
<text text-anchor="middle" x="228" y="-1270.06" font-family="Helvetica,sans-Serif" font-size="10.00" fill="#000000">distributed.</text>
<text text-anchor="middle" x="228" y="-1258.06" font-family="Helvetica,sans-Serif" font-size="10.00" fill="#000000">scheduler</text>
</g>
<!-- dask&#45;&gt;distributed_scheduler -->
<g id="edge6" class="edge">
<title>dask&#45;&gt;distributed_scheduler</title><style>.edge>path:hover{stroke-width:8}</style>
<path fill="none" stroke="black" d="M257,-1488.2C257,-1458.98 294.61,-1475.67 312,-1452.2 340.35,-1413.92 353.26,-1395.59 342,-1349.31"/>
<path fill="none" stroke="black" d="M342,-1347.31C335.27,-1315.53 304.03,-1295.25 275.96,-1283.16"/>
<polygon fill="#f90606" stroke="black" points="277.18,-1279.88 266.6,-1279.38 274.55,-1286.37 277.18,-1279.88"/>
</g>
<!-- distributed_utils -->
<g id="node10" class="node">
<title>distributed_utils</title><style>.edge>path:hover{stroke-width:8}</style>
<ellipse fill="#0cf368" stroke="black" cx="257" cy="-1429.57" rx="45.78" ry="22.76"/>
<text text-anchor="middle" x="257" y="-1432.57" font-family="Helvetica,sans-Serif" font-size="10.00" fill="#000000">distributed.</text>
<text text-anchor="middle" x="257" y="-1420.57" font-family="Helvetica,sans-Serif" font-size="10.00" fill="#000000">utils</text>
</g>
<!-- dask&#45;&gt;distributed_utils -->
<g id="edge7" class="edge">
<title>dask&#45;&gt;distributed_utils</title><style>.edge>path:hover{stroke-width:8}</style>
<path fill="none" stroke="black" d="M257,-1488.2C257,-1479.89 257,-1470.92 257,-1462.58"/>
<polygon fill="#f90606" stroke="black" points="260.5,-1462.46 257,-1452.46 253.5,-1462.46 260.5,-1462.46"/>
</g>
<!-- pyslurm_decorators_jobqueue_cluster -->
<g id="node13" class="node">
<title>pyslurm_decorators_jobqueue_cluster</title><style>.edge>path:hover{stroke-width:8}</style>
<ellipse fill="#264573" stroke="black" cx="255" cy="-499.07" rx="75.21" ry="31.23"/>
<text text-anchor="middle" x="255" y="-508.07" font-family="Helvetica,sans-Serif" font-size="10.00" fill="#ffffff">pyslurm_decorators.</text>
<text text-anchor="middle" x="255" y="-496.07" font-family="Helvetica,sans-Serif" font-size="10.00" fill="#ffffff">jobqueue.</text>
<text text-anchor="middle" x="255" y="-484.07" font-family="Helvetica,sans-Serif" font-size="10.00" fill="#ffffff">cluster</text>
</g>
<!-- dask&#45;&gt;pyslurm_decorators_jobqueue_cluster -->
<g id="edge8" class="edge">
<title>dask&#45;&gt;pyslurm_decorators_jobqueue_cluster</title><style>.edge>path:hover{stroke-width:8}</style>
<path fill="none" stroke="black" d="M342,-859.32C318.64,-768.03 374.95,-725 320,-648.44"/>
</g>
<!-- dask_jobqueue -->
<g id="node2" class="node">
<title>dask_jobqueue</title><style>.edge>path:hover{stroke-width:8}</style>
<ellipse fill="#a0bc2f" stroke="black" cx="242" cy="-702.44" rx="50.3" ry="18"/>
<text text-anchor="middle" x="242" y="-699.44" font-family="Helvetica,sans-Serif" font-size="10.00" fill="#000000">dask_jobqueue</text>
</g>
<!-- dask_jobqueue&#45;&gt;pyslurm_decorators_jobqueue_cluster -->
<g id="edge9" class="edge">
<title>dask_jobqueue&#45;&gt;pyslurm_decorators_jobqueue_cluster</title><style>.edge>path:hover{stroke-width:8}</style>
<path fill="none" stroke="black" d="M241.47,-684.13C241.45,-673.71 241.93,-660.23 244,-648.44"/>
<path fill="none" stroke="black" d="M244,-647.44C248.43,-622.21 243.66,-615.42 244,-589.81"/>
</g>
<!-- pyslurm_decorators_lib_clusters -->
<g id="node15" class="node">
<title>pyslurm_decorators_lib_clusters</title><style>.edge>path:hover{stroke-width:8}</style>
<ellipse fill="#2d63b4" stroke="black" cx="293" cy="-282.59" rx="75.21" ry="31.23"/>
<text text-anchor="middle" x="293" y="-291.59" font-family="Helvetica,sans-Serif" font-size="10.00" fill="#ffffff">pyslurm_decorators.</text>
<text text-anchor="middle" x="293" y="-279.59" font-family="Helvetica,sans-Serif" font-size="10.00" fill="#ffffff">lib.</text>
<text text-anchor="middle" x="293" y="-267.59" font-family="Helvetica,sans-Serif" font-size="10.00" fill="#ffffff">clusters</text>
</g>
<!-- dask_jobqueue&#45;&gt;pyslurm_decorators_lib_clusters -->
<g id="edge10" class="edge">
<title>dask_jobqueue&#45;&gt;pyslurm_decorators_lib_clusters</title><style>.edge>path:hover{stroke-width:8}</style>
<path fill="none" stroke="black" d="M244,-647.44C251.16,-606.66 349.76,-540.65 358,-500.07"/>
<path fill="none" stroke="black" d="M358,-498.07C370.57,-433.79 359.61,-416.18 358,-350.71"/>
</g>
<!-- dask_jobqueue_core&#45;&gt;dask_jobqueue -->
<g id="edge11" class="edge">
<title>dask_jobqueue_core&#45;&gt;dask_jobqueue</title><style>.edge>path:hover{stroke-width:8}</style>
<path fill="none" stroke="black" d="M164,-778.07C160.14,-753.61 181.04,-734.52 202.17,-721.77"/>
<polygon fill="#849b26" stroke="black" points="204.18,-724.66 211.17,-716.7 200.74,-718.56 204.18,-724.66"/>
</g>
<!-- dask_jobqueue_core&#45;&gt;dask_jobqueue_slurm -->
<g id="edge12" class="edge">
<title>dask_jobqueue_core&#45;&gt;dask_jobqueue_slurm</title><style>.edge>path:hover{stroke-width:8}</style>
<path fill="none" stroke="black" d="M247.19,-837.67C247.99,-829.72 248.91,-820.54 249.79,-811.88"/>
<polygon fill="#849b26" stroke="black" points="253.29,-812 250.82,-801.7 246.33,-811.3 253.29,-812"/>
</g>
<!-- dask_jobqueue_core&#45;&gt;pyslurm_decorators_jobqueue_cluster -->
<g id="edge13" class="edge">
<title>dask_jobqueue_core&#45;&gt;pyslurm_decorators_jobqueue_cluster</title><style>.edge>path:hover{stroke-width:8}</style>
<path fill="none" stroke="black" d="M211.49,-841.13C191.1,-827.52 168.2,-806.69 164,-780.07"/>
<path fill="none" stroke="black" d="M164,-778.07C158.83,-745.31 154.03,-735.07 164,-703.44"/>
</g>
<!-- dask_jobqueue_slurm&#45;&gt;dask_jobqueue -->
<g id="edge14" class="edge">
<title>dask_jobqueue_slurm&#45;&gt;dask_jobqueue</title><style>.edge>path:hover{stroke-width:8}</style>
<path fill="none" stroke="black" d="M249.76,-756.08C248.58,-748.1 247.24,-738.99 246,-730.61"/>
<polygon fill="#a7c431" stroke="black" points="249.44,-729.92 244.52,-720.54 242.52,-730.94 249.44,-729.92"/>
</g>
<!-- dask_jobqueue_slurm&#45;&gt;pyslurm_decorators_jobqueue_cluster -->
<g id="edge15" class="edge">
<title>dask_jobqueue_slurm&#45;&gt;pyslurm_decorators_jobqueue_cluster</title><style>.edge>path:hover{stroke-width:8}</style>
<path fill="none" stroke="black" d="M275.51,-757.74C289.93,-743.69 308.09,-723.91 320,-703.44"/>
<path fill="none" stroke="black" d="M320,-701.44C331.85,-681.08 333.74,-667.58 320,-648.44"/>
<path fill="none" stroke="black" d="M320,-647.44C295.28,-613 243.44,-632.2 244,-589.81"/>
</g>
<!-- dask_jobqueue_slurm&#45;&gt;pyslurm_decorators_lib_clusters -->
<g id="edge16" class="edge">
<title>dask_jobqueue_slurm&#45;&gt;pyslurm_decorators_lib_clusters</title><style>.edge>path:hover{stroke-width:8}</style>
<path fill="none" stroke="black" d="M320,-701.44C337.45,-671.44 343.79,-566.77 358,-500.07"/>
</g>
<!-- distributed&#45;&gt;dask_jobqueue_core -->
<g id="edge17" class="edge">
<title>distributed&#45;&gt;dask_jobqueue_core</title><style>.edge>path:hover{stroke-width:8}</style>
<path fill="none" stroke="black" d="M169.5,-967.98C196.2,-961.96 229.45,-948.74 237,-919.95"/>
<path fill="none" stroke="black" d="M237,-918.95C239.17,-910.68 240.78,-901.59 241.96,-893.11"/>
<polygon fill="#0ac253" stroke="black" points="245.43,-893.54 243.2,-883.18 238.49,-892.67 245.43,-893.54"/>
</g>
<!-- distributed&#45;&gt;pyslurm_decorators_jobqueue_cluster -->
<g id="edge18" class="edge">
<title>distributed&#45;&gt;pyslurm_decorators_jobqueue_cluster</title><style>.edge>path:hover{stroke-width:8}</style>
<path fill="none" stroke="black" d="M163.06,-962.52C180.91,-954.04 200.17,-940.16 199,-919.95"/>
</g>
<!-- distributed_core&#45;&gt;dask_jobqueue_core -->
<g id="edge19" class="edge">
<title>distributed_core&#45;&gt;dask_jobqueue_core</title><style>.edge>path:hover{stroke-width:8}</style>
<path fill="none" stroke="black" d="M152,-1266.06C145.96,-1254.1 163.35,-1253.73 173,-1244.43 190.67,-1227.39 193.85,-1221.44 214,-1207.43 242.4,-1187.69 257.03,-1194.27 283,-1171.43 295.25,-1160.66 297.32,-1156.2 304,-1141.32"/>
<path fill="none" stroke="black" d="M304,-1139.32C315.38,-1102.02 305.77,-1090.53 304,-1051.58"/>
</g>
<!-- distributed_core&#45;&gt;distributed -->
<g id="edge20" class="edge">
<title>distributed_core&#45;&gt;distributed</title><style>.edge>path:hover{stroke-width:8}</style>
<path fill="none" stroke="black" d="M76,-1139.32C80.43,-1097.05 104.23,-1092.94 114,-1051.58"/>
</g>
<!-- distributed_core&#45;&gt;distributed_deploy_spec -->
<g id="edge21" class="edge">
<title>distributed_core&#45;&gt;distributed_deploy_spec</title><style>.edge>path:hover{stroke-width:8}</style>
<path fill="none" stroke="black" d="M76,-1207.43C75.63,-1196.11 133.21,-1173.71 177.6,-1158.13"/>
<polygon fill="#17d362" stroke="black" points="178.83,-1161.41 187.13,-1154.82 176.53,-1154.8 178.83,-1161.41"/>
</g>
<!-- distributed_core&#45;&gt;distributed_scheduler -->
<g id="edge22" class="edge">
<title>distributed_core&#45;&gt;distributed_scheduler</title><style>.edge>path:hover{stroke-width:8}</style>
<path fill="none" stroke="black" d="M195.06,-1326.07C199.99,-1317.39 205.78,-1307.19 211.12,-1297.78"/>
<polygon fill="#17d362" stroke="black" points="214.17,-1299.5 216.06,-1289.08 208.08,-1296.05 214.17,-1299.5"/>
</g>
<!-- distributed_core&#45;&gt;pyslurm_decorators_jobqueue_cluster -->
<g id="edge23" class="edge">
<title>distributed_core&#45;&gt;pyslurm_decorators_jobqueue_cluster</title><style>.edge>path:hover{stroke-width:8}</style>
<path fill="none" stroke="black" d="M172.92,-1325.94C165.95,-1310.26 157.06,-1288.27 152,-1268.06"/>
<path fill="none" stroke="black" d="M152,-1266.06C141.7,-1224.94 77.4,-1250.8 76,-1208.43"/>
<path fill="none" stroke="black" d="M76,-1207.43C75.03,-1178.06 72.94,-1170.54 76,-1141.32"/>
<path fill="none" stroke="black" d="M76,-1139.32C80.06,-1100.53 75.04,-1090.56 76,-1051.58"/>
</g>
<!-- distributed_deploy -->
<g id="node7" class="node">
<title>distributed_deploy</title><style>.edge>path:hover{stroke-width:8}</style>
<ellipse fill="#33cc70" stroke="black" cx="230" cy="-1050.58" rx="45.78" ry="22.76"/>
<text text-anchor="middle" x="230" y="-1053.58" font-family="Helvetica,sans-Serif" font-size="10.00" fill="#000000">distributed.</text>
<text text-anchor="middle" x="230" y="-1041.58" font-family="Helvetica,sans-Serif" font-size="10.00" fill="#000000">deploy</text>
</g>
<!-- distributed_deploy&#45;&gt;dask_jobqueue_core -->
<g id="edge24" class="edge">
<title>distributed_deploy&#45;&gt;dask_jobqueue_core</title><style>.edge>path:hover{stroke-width:8}</style>
<path fill="none" stroke="black" d="M237,-972.95C234.13,-949.57 231.03,-942.74 237,-919.95"/>
</g>
<!-- distributed_deploy&#45;&gt;distributed -->
<g id="edge25" class="edge">
<title>distributed_deploy&#45;&gt;distributed</title><style>.edge>path:hover{stroke-width:8}</style>
<path fill="none" stroke="black" d="M206.27,-1031.13C192.53,-1020.45 175.19,-1006.97 160.94,-995.89"/>
<polygon fill="#33cc70" stroke="black" points="163,-993.06 152.96,-989.69 158.71,-998.59 163,-993.06"/>
</g>
<!-- distributed_deploy&#45;&gt;pyslurm_decorators_jobqueue_cluster -->
<g id="edge26" class="edge">
<title>distributed_deploy&#45;&gt;pyslurm_decorators_jobqueue_cluster</title><style>.edge>path:hover{stroke-width:8}</style>
<path fill="none" stroke="black" d="M234.49,-1027.99C236.98,-1013.07 239.19,-992.77 237,-974.95"/>
<path fill="none" stroke="black" d="M237,-972.95C233.47,-944.18 200.68,-948.89 199,-919.95"/>
</g>
<!-- distributed_deploy_spec&#45;&gt;dask_jobqueue_core -->
<g id="edge27" class="edge">
<title>distributed_deploy_spec&#45;&gt;dask_jobqueue_core</title><style>.edge>path:hover{stroke-width:8}</style>
<path fill="none" stroke="black" d="M261.21,-1118.3C281.42,-1102.71 303.46,-1079.38 304,-1051.58"/>
<path fill="none" stroke="black" d="M304,-1049.58C304.31,-1033.37 232.89,-935.63 237,-919.95"/>
</g>
<!-- distributed_deploy_spec&#45;&gt;distributed_deploy -->
<g id="edge28" class="edge">
<title>distributed_deploy_spec&#45;&gt;distributed_deploy</title><style>.edge>path:hover{stroke-width:8}</style>
<path fill="none" stroke="black" d="M228.69,-1109.12C228.88,-1100.83 229.08,-1091.81 229.27,-1083.42"/>
<polygon fill="#2bac5e" stroke="black" points="232.78,-1083.32 229.51,-1073.24 225.78,-1083.16 232.78,-1083.32"/>
</g>
<!-- distributed_deploy_spec&#45;&gt;pyslurm_decorators_jobqueue_cluster -->
<g id="edge29" class="edge">
<title>distributed_deploy_spec&#45;&gt;pyslurm_decorators_jobqueue_cluster</title><style>.edge>path:hover{stroke-width:8}</style>
<path fill="none" stroke="black" d="M201.46,-1114.54C191.1,-1103.09 180.41,-1088.61 175,-1073.21 168.33,-1054.23 172.81,-1047.94 175,-1027.95 180.37,-979.07 201.85,-969.04 199,-919.95"/>
</g>
<!-- distributed_scheduler&#45;&gt;dask_jobqueue_core -->
<g id="edge30" class="edge">
<title>distributed_scheduler&#45;&gt;dask_jobqueue_core</title><style>.edge>path:hover{stroke-width:8}</style>
<path fill="none" stroke="black" d="M262.75,-1251.83C279.91,-1242.5 298.17,-1228.29 304,-1208.43"/>
<path fill="none" stroke="black" d="M304,-1207.43C312.28,-1179.24 291.97,-1168.13 304,-1141.32"/>
</g>
<!-- distributed_scheduler&#45;&gt;distributed -->
<g id="edge31" class="edge">
<title>distributed_scheduler&#45;&gt;distributed</title><style>.edge>path:hover{stroke-width:8}</style>
<path fill="none" stroke="black" d="M114,-1139.32C109.94,-1100.53 105.03,-1089.53 114,-1051.58"/>
</g>
<!-- distributed_scheduler&#45;&gt;distributed_deploy_spec -->
<g id="edge32" class="edge">
<title>distributed_scheduler&#45;&gt;distributed_deploy_spec</title><style>.edge>path:hover{stroke-width:8}</style>
<path fill="none" stroke="black" d="M221.44,-1244.39C218.53,-1233.68 215.44,-1220.49 214,-1208.43 212.92,-1199.41 213.73,-1189.81 215.39,-1180.77"/>
<polygon fill="#21bf60" stroke="black" points="218.84,-1181.39 217.58,-1170.87 212.01,-1179.88 218.84,-1181.39"/>
</g>
<!-- distributed_scheduler&#45;&gt;pyslurm_decorators_jobqueue_cluster -->
<g id="edge33" class="edge">
<title>distributed_scheduler&#45;&gt;pyslurm_decorators_jobqueue_cluster</title><style>.edge>path:hover{stroke-width:8}</style>
<path fill="none" stroke="black" d="M198.95,-1249.53C166.91,-1228.97 119.15,-1190.48 114,-1141.32"/>
<path fill="none" stroke="black" d="M114,-1139.32C99.94,-1099.22 74.96,-1094.06 76,-1051.58"/>
</g>
<!-- distributed_utils&#45;&gt;dask_jobqueue_core -->
<g id="edge34" class="edge">
<title>distributed_utils&#45;&gt;dask_jobqueue_core</title><style>.edge>path:hover{stroke-width:8}</style>
<path fill="none" stroke="black" d="M304,-1266.06C296.78,-1241.48 296.78,-1233.01 304,-1208.43"/>
</g>
<!-- distributed_utils&#45;&gt;distributed -->
<g id="edge35" class="edge">
<title>distributed_utils&#45;&gt;distributed</title><style>.edge>path:hover{stroke-width:8}</style>
<path fill="none" stroke="black" d="M304,-1347.31C305.53,-1312.12 313.92,-1301.86 304,-1268.06"/>
<path fill="none" stroke="black" d="M304,-1266.06C298.08,-1245.89 235.98,-1217.7 228,-1208.43"/>
<path fill="none" stroke="black" d="M228,-1207.43C208.94,-1185.29 192.36,-1193.31 173,-1171.43 153.33,-1149.2 107.18,-1080.47 114,-1051.58"/>
</g>
<!-- distributed_utils&#45;&gt;distributed_core -->
<g id="edge36" class="edge">
<title>distributed_utils&#45;&gt;distributed_core</title><style>.edge>path:hover{stroke-width:8}</style>
<path fill="none" stroke="black" d="M238.33,-1408.57C229.3,-1398.9 218.33,-1387.15 208.54,-1376.67"/>
<polygon fill="#0cf368" stroke="black" points="211.05,-1374.23 201.67,-1369.31 205.93,-1379 211.05,-1374.23"/>
</g>
<!-- distributed_utils&#45;&gt;distributed_deploy_spec -->
<g id="edge37" class="edge">
<title>distributed_utils&#45;&gt;distributed_deploy_spec</title><style>.edge>path:hover{stroke-width:8}</style>
<path fill="none" stroke="black" d="M228,-1207.43C221.84,-1200.28 219.64,-1190.89 219.49,-1181.46"/>
<polygon fill="#0cf368" stroke="black" points="222.99,-1181.47 220.04,-1171.29 216,-1181.09 222.99,-1181.47"/>
</g>
<!-- distributed_utils&#45;&gt;distributed_scheduler -->
<g id="edge38" class="edge">
<title>distributed_utils&#45;&gt;distributed_scheduler</title><style>.edge>path:hover{stroke-width:8}</style>
<path fill="none" stroke="black" d="M276.07,-1408.92C288.66,-1393.91 303.01,-1372.01 304,-1349.31"/>
<path fill="none" stroke="black" d="M304,-1347.31C305.05,-1323.09 286.3,-1303.38 267.17,-1289.67"/>
<polygon fill="#0cf368" stroke="black" points="268.96,-1286.65 258.71,-1283.98 265.05,-1292.46 268.96,-1286.65"/>
</g>
<!-- distributed_utils&#45;&gt;pyslurm_decorators_jobqueue_cluster -->
<g id="edge39" class="edge">
<title>distributed_utils&#45;&gt;pyslurm_decorators_jobqueue_cluster</title><style>.edge>path:hover{stroke-width:8}</style>
<path fill="none" stroke="black" d="M221.8,-1414.96C151.42,-1386.65 0,-1319.74 0,-1268.06 0,-1268.06 0,-1268.06 0,-1207.43 0,-1206.23 75.97,-1052.78 76,-1051.58"/>
<path fill="none" stroke="black" d="M76,-1049.58C74.48,-1007.65 61.22,-988.24 88,-955.95 121.11,-916.03 201.24,-971.77 199,-919.95"/>
<path fill="none" stroke="black" d="M199,-918.95C197.89,-899.75 183.25,-900.32 175,-882.95 158.8,-848.82 155.62,-839.06 150,-801.7 143.44,-758.08 150.74,-745.51 164,-703.44"/>
<path fill="none" stroke="black" d="M164,-701.44C178.27,-642.09 243.19,-650.85 244,-589.81"/>
<path fill="none" stroke="black" d="M244,-587.81C243.31,-572.24 244.89,-555.21 247.06,-540.34"/>
<polygon fill="#0cf368" stroke="black" points="250.52,-540.85 248.64,-530.43 243.61,-539.75 250.52,-540.85"/>
</g>
<!-- pyslurm_decorators -->
<g id="node11" class="node">
<title>pyslurm_decorators</title><style>.edge>path:hover{stroke-width:8}</style>
<ellipse fill="#2f67bc" stroke="black" cx="190" cy="-18" rx="62.32" ry="18"/>
<text text-anchor="middle" x="190" y="-15" font-family="Helvetica,sans-Serif" font-size="10.00" fill="#ffffff">pyslurm_decorators</text>
</g>
<!-- pyslurm_decorators_jobqueue -->
<g id="node12" class="node">
<title>pyslurm_decorators_jobqueue</title><style>.edge>path:hover{stroke-width:8}</style>
<ellipse fill="#4073c0" stroke="black" cx="255" cy="-409.33" rx="75.21" ry="22.76"/>
<text text-anchor="middle" x="255" y="-412.33" font-family="Helvetica,sans-Serif" font-size="10.00" fill="#ffffff">pyslurm_decorators.</text>
<text text-anchor="middle" x="255" y="-400.33" font-family="Helvetica,sans-Serif" font-size="10.00" fill="#ffffff">jobqueue</text>
</g>
<!-- pyslurm_decorators_jobqueue&#45;&gt;pyslurm_decorators_lib_clusters -->
<g id="edge40" class="edge">
<title>pyslurm_decorators_jobqueue&#45;&gt;pyslurm_decorators_lib_clusters</title><style>.edge>path:hover{stroke-width:8}</style>
<path fill="none" stroke="black" d="M316.34,-396.03C338.74,-387.67 358.57,-373.75 358,-350.71"/>
<path fill="none" stroke="black" d="M358,-349.71C357.68,-336.75 351.14,-325.41 342.32,-315.95"/>
<polygon fill="#4073c0" stroke="black" points="344.47,-313.16 334.83,-308.76 339.62,-318.21 344.47,-313.16"/>
</g>
<!-- pyslurm_decorators_jobqueue_cluster&#45;&gt;pyslurm_decorators_jobqueue -->
<g id="edge41" class="edge">
<title>pyslurm_decorators_jobqueue_cluster&#45;&gt;pyslurm_decorators_jobqueue</title><style>.edge>path:hover{stroke-width:8}</style>
<path fill="none" stroke="black" d="M255,-467.88C255,-459.58 255,-450.56 255,-442.18"/>
<polygon fill="#264573" stroke="black" points="258.5,-442 255,-432 251.5,-442 258.5,-442"/>
</g>
<!-- pyslurm_decorators_lib -->
<g id="node14" class="node">
<title>pyslurm_decorators_lib</title><style>.edge>path:hover{stroke-width:8}</style>
<ellipse fill="#4778c2" stroke="black" cx="139" cy="-94.63" rx="75.21" ry="22.76"/>
<text text-anchor="middle" x="139" y="-97.63" font-family="Helvetica,sans-Serif" font-size="10.00" fill="#ffffff">pyslurm_decorators.</text>
<text text-anchor="middle" x="139" y="-85.63" font-family="Helvetica,sans-Serif" font-size="10.00" fill="#ffffff">lib</text>
</g>
<!-- pyslurm_decorators_lib&#45;&gt;pyslurm_decorators -->
<g id="edge42" class="edge">
<title>pyslurm_decorators_lib&#45;&gt;pyslurm_decorators</title><style>.edge>path:hover{stroke-width:8}</style>
<path fill="none" stroke="black" d="M153.75,-72.04C159.73,-63.3 166.66,-53.15 172.86,-44.08"/>
<polygon fill="#4778c2" stroke="black" points="175.77,-46.03 178.52,-35.8 169.99,-42.08 175.77,-46.03"/>
</g>
<!-- pyslurm_decorators_lib_clusters&#45;&gt;pyslurm_decorators -->
<g id="edge43" class="edge">
<title>pyslurm_decorators_lib_clusters&#45;&gt;pyslurm_decorators</title><style>.edge>path:hover{stroke-width:8}</style>
<path fill="none" stroke="black" d="M276.42,-252.08C270.76,-240.91 264.89,-227.89 261,-215.48 244.86,-164.02 270.58,-141.36 242,-95.63"/>
<path fill="none" stroke="black" d="M242,-93.63C230.85,-77.01 218,-58.56 207.87,-44.17"/>
<polygon fill="#2d63b4" stroke="black" points="210.57,-41.93 201.94,-35.78 204.85,-45.96 210.57,-41.93"/>
</g>
<!-- pyslurm_decorators_lib_decorators -->
<g id="node16" class="node">
<title>pyslurm_decorators_lib_decorators</title><style>.edge>path:hover{stroke-width:8}</style>
<ellipse fill="#3d6eb8" stroke="black" cx="345" cy="-184.37" rx="75.21" ry="31.23"/>
<text text-anchor="middle" x="345" y="-193.37" font-family="Helvetica,sans-Serif" font-size="10.00" fill="#ffffff">pyslurm_decorators.</text>
<text text-anchor="middle" x="345" y="-181.37" font-family="Helvetica,sans-Serif" font-size="10.00" fill="#ffffff">lib.</text>
<text text-anchor="middle" x="345" y="-169.37" font-family="Helvetica,sans-Serif" font-size="10.00" fill="#ffffff">decorators</text>
</g>
<!-- pyslurm_decorators_lib_clusters&#45;&gt;pyslurm_decorators_lib_decorators -->
<g id="edge44" class="edge">
<title>pyslurm_decorators_lib_clusters&#45;&gt;pyslurm_decorators_lib_decorators</title><style>.edge>path:hover{stroke-width:8}</style>
<path fill="none" stroke="black" d="M309.03,-251.94C313.77,-243.16 319.04,-233.41 324.05,-224.14"/>
<polygon fill="#2d63b4" stroke="black" points="327.26,-225.55 328.94,-215.09 321.1,-222.22 327.26,-225.55"/>
</g>
<!-- pyslurm_decorators_lib_decorators&#45;&gt;pyslurm_decorators -->
<g id="edge45" class="edge">
<title>pyslurm_decorators_lib_decorators&#45;&gt;pyslurm_decorators</title><style>.edge>path:hover{stroke-width:8}</style>
<path fill="none" stroke="black" d="M304.69,-158.07C283.08,-142.55 257.75,-120.83 242,-95.63"/>
</g>
<!-- pyslurm_decorators_main -->
<g id="node17" class="node">
<title>pyslurm_decorators_main</title><style>.edge>path:hover{stroke-width:8}</style>
<ellipse fill="#4971ac" stroke="black" cx="499" cy="-588.81" rx="75.21" ry="22.76"/>
<text text-anchor="middle" x="499" y="-591.81" font-family="Helvetica,sans-Serif" font-size="10.00" fill="#ffffff">pyslurm_decorators.</text>
<text text-anchor="middle" x="499" y="-579.81" font-family="Helvetica,sans-Serif" font-size="10.00" fill="#ffffff">main</text>
</g>
<!-- rich -->
<g id="node18" class="node">
<title>rich</title><style>.edge>path:hover{stroke-width:8}</style>
<ellipse fill="#b526d9" stroke="black" cx="413" cy="-702.44" rx="27" ry="18"/>
<text text-anchor="middle" x="413" y="-699.44" font-family="Helvetica,sans-Serif" font-size="10.00" fill="#ffffff">rich</text>
</g>
<!-- rich&#45;&gt;pyslurm_decorators_jobqueue_cluster -->
<g id="edge46" class="edge">
<title>rich&#45;&gt;pyslurm_decorators_jobqueue_cluster</title><style>.edge>path:hover{stroke-width:8}</style>
<path fill="none" stroke="black" d="M405.39,-684.67C401.32,-674.44 396.95,-660.97 396,-648.44"/>
<path fill="none" stroke="black" d="M396,-647.44C393.83,-618.81 337.81,-567.31 297.05,-533.4"/>
<polygon fill="#b526d9" stroke="black" points="299.07,-530.53 289.12,-526.87 294.62,-535.93 299.07,-530.53"/>
</g>
<!-- rich&#45;&gt;pyslurm_decorators_lib_decorators -->
<g id="edge47" class="edge">
<title>rich&#45;&gt;pyslurm_decorators_lib_decorators</title><style>.edge>path:hover{stroke-width:8}</style>
<path fill="none" stroke="black" d="M396,-647.44C397.27,-581.96 396,-565.57 396,-500.07 396,-500.07 396,-500.07 396,-349.71 396,-305.24 391.03,-293.67 377,-251.48 373.99,-242.42 370,-233 365.86,-224.2"/>
<polygon fill="#b526d9" stroke="black" points="368.88,-222.41 361.35,-214.96 362.59,-225.48 368.88,-222.41"/>
</g>
<!-- rich&#45;&gt;pyslurm_decorators_main -->
<g id="edge48" class="edge">
<title>rich&#45;&gt;pyslurm_decorators_main</title><style>.edge>path:hover{stroke-width:8}</style>
<path fill="none" stroke="black" d="M396,-647.44C394.49,-627.51 409.08,-614.4 427.73,-605.81"/>
<polygon fill="#b526d9" stroke="black" points="429.23,-608.98 437.15,-601.95 426.57,-602.5 429.23,-608.98"/>
</g>
</g>
</svg>
